G04 PROTEUS GERBER X2 FILE*
%TF.GenerationSoftware,Labcenter,Proteus,8.7-SP3-Build25561*%
%TF.CreationDate,2020-06-23T21:11:53+00:00*%
%TF.FileFunction,Plated,1,2,PTH*%
%TF.FilePolarity,Positive*%
%TF.Part,Single*%
%TF.SameCoordinates,{43e51975-e15d-4f1a-9cd5-5ad722afc605}*%
%FSLAX45Y45*%
%MOMM*%
G01*
%TA.AperFunction,ComponentDrill*%
%ADD34C,1.016000*%
%TA.AperFunction,OtherDrill,Unknown*%
%ADD35C,4.000000*%
%TA.AperFunction,ComponentDrill*%
%ADD36C,0.762000*%
%TA.AperFunction,ComponentDrill*%
%ADD37C,0.812800*%
%TA.AperFunction,OtherDrill,Unknown*%
%ADD38C,1.270000*%
%TD.AperFunction*%
D34*
X-10746000Y+4254000D03*
X-10746000Y+4000000D03*
X-10746000Y+3746000D03*
D35*
X-14750000Y+6250000D03*
X-14750000Y+3000000D03*
X+14750000Y+1500000D03*
X-12250000Y+11250000D03*
X-12250000Y+8000000D03*
X-10000000Y+8000000D03*
D34*
X-8750000Y+4008000D03*
X-8750000Y+3500000D03*
D35*
X-6750000Y+11250000D03*
X-6750000Y+8000000D03*
D34*
X-4000000Y+11250000D03*
X-3492000Y+11250000D03*
X-3500000Y+8492000D03*
X-3500000Y+9000000D03*
D35*
X-1000000Y+11250000D03*
D36*
X+3250000Y+8492000D03*
X+3250000Y+9000000D03*
D35*
X+14750000Y-1250000D03*
D36*
X+6500000Y+8968000D03*
X+6500000Y+9984000D03*
X+6508000Y+7242000D03*
X+6508000Y+8258000D03*
D37*
X+7748000Y+5588000D03*
X+8002000Y+5588000D03*
X+7709000Y+6750000D03*
X+8039000Y+6750000D03*
D36*
X+6750000Y+3750000D03*
X+7004000Y+3750000D03*
X+7258000Y+3750000D03*
X+7512000Y+3750000D03*
X+7766000Y+3750000D03*
X+8020000Y+3750000D03*
X+8274000Y+3750000D03*
X+8528000Y+3750000D03*
X+8528000Y+4512000D03*
X+8274000Y+4512000D03*
X+8020000Y+4512000D03*
X+7766000Y+4512000D03*
X+7512000Y+4512000D03*
X+7258000Y+4512000D03*
X+7004000Y+4512000D03*
X+6750000Y+4512000D03*
X+8274000Y+2500000D03*
X+7766000Y+2500000D03*
X+8266000Y+3000000D03*
X+7250000Y+3000000D03*
X+5500000Y+3250000D03*
X+6516000Y+3250000D03*
X+6500000Y+2750000D03*
X+7516000Y+2750000D03*
X+5500000Y+2500000D03*
X+6008000Y+2500000D03*
X+3750000Y+3250000D03*
X+4766000Y+3250000D03*
X+6266000Y+1500000D03*
X+5250000Y+1500000D03*
X+4250000Y+2500000D03*
X+4250000Y+1484000D03*
X+5500000Y+2000000D03*
X+6516000Y+2000000D03*
X-1500000Y+2500000D03*
X-1246000Y+2500000D03*
X-992000Y+2500000D03*
X-738000Y+2500000D03*
X-738000Y+3262000D03*
X-992000Y+3262000D03*
X-1246000Y+3262000D03*
X-1500000Y+3262000D03*
X-10742000Y+6258000D03*
X-10742000Y+5242000D03*
D38*
X-14750000Y+2000000D03*
X-14750000Y+1250000D03*
X-750000Y+3750000D03*
X-2250000Y+3250000D03*
D35*
X+1750000Y+11250000D03*
M02*
