G04 PROTEUS GERBER X2 FILE*
%TF.GenerationSoftware,Labcenter,Proteus,8.7-SP3-Build25561*%
%TF.CreationDate,2020-06-23T21:11:53+00:00*%
%TF.FileFunction,AssemblyDrawing,Top*%
%TF.FilePolarity,Positive*%
%TF.Part,Single*%
%TF.SameCoordinates,{43e51975-e15d-4f1a-9cd5-5ad722afc605}*%
%FSLAX45Y45*%
%MOMM*%
G01*
%TA.AperFunction,Material*%
%ADD20C,0.203200*%
%ADD29C,0.309370*%
%ADD72C,0.240790*%
%ADD73C,0.164590*%
%TA.AperFunction,Profile*%
%ADD17C,0.203200*%
%TA.AperFunction,Material*%
%ADD30C,0.106680*%
%ADD31C,0.372190*%
%ADD32C,0.533400*%
%ADD33C,0.345440*%
%TD.AperFunction*%
D20*
X-10946660Y+3456440D02*
X-10431040Y+3456440D01*
X-10431040Y+4543560D01*
X-10946660Y+4543560D01*
X-10946660Y+3456440D01*
D29*
X-10719787Y+3752503D02*
X-10781661Y+3814377D01*
X-10781661Y+3876251D01*
X-10719787Y+3938125D01*
X-10657912Y+3938125D01*
X-10596038Y+3876251D01*
X-10596038Y+3814377D01*
X-10657912Y+3752503D01*
X-10719787Y+3752503D01*
X-10657912Y+3876251D02*
X-10596038Y+3938125D01*
X-10719787Y+4061874D02*
X-10781661Y+4123748D01*
X-10596038Y+4123748D01*
D20*
X-9014160Y+3362840D02*
X-8612840Y+3362840D01*
X-8612840Y+4145160D01*
X-9014160Y+4145160D01*
X-9014160Y+3362840D01*
D72*
X-8741262Y+3561367D02*
X-8885737Y+3561367D01*
X-8885737Y+3657683D01*
X-8837579Y+3705841D01*
X-8789420Y+3705841D01*
X-8741262Y+3657683D01*
X-8741262Y+3561367D01*
X-8837579Y+3802158D02*
X-8885737Y+3850316D01*
X-8741262Y+3850316D01*
D20*
X-4137160Y+10985840D02*
X-3354840Y+10985840D01*
X-3354840Y+11387160D01*
X-4137160Y+11387160D01*
X-4137160Y+10985840D01*
D72*
X-3938633Y+11114262D02*
X-3938633Y+11258737D01*
X-3842317Y+11258737D01*
X-3794159Y+11210579D01*
X-3794159Y+11162420D01*
X-3842317Y+11114262D01*
X-3938633Y+11114262D01*
X-3721921Y+11234658D02*
X-3697842Y+11258737D01*
X-3625605Y+11258737D01*
X-3601526Y+11234658D01*
X-3601526Y+11210579D01*
X-3625605Y+11186500D01*
X-3697842Y+11186500D01*
X-3721921Y+11162420D01*
X-3721921Y+11114262D01*
X-3601526Y+11114262D01*
D20*
X-3637160Y+8354840D02*
X-3235840Y+8354840D01*
X-3235840Y+9137160D01*
X-3637160Y+9137160D01*
X-3637160Y+8354840D01*
D72*
X-3364262Y+8553367D02*
X-3508737Y+8553367D01*
X-3508737Y+8649683D01*
X-3460579Y+8697841D01*
X-3412420Y+8697841D01*
X-3364262Y+8649683D01*
X-3364262Y+8553367D01*
X-3484658Y+8770079D02*
X-3508737Y+8794158D01*
X-3508737Y+8866395D01*
X-3484658Y+8890474D01*
X-3460579Y+8890474D01*
X-3436500Y+8866395D01*
X-3412420Y+8890474D01*
X-3388341Y+8890474D01*
X-3364262Y+8866395D01*
X-3364262Y+8794158D01*
X-3388341Y+8770079D01*
X-3436500Y+8818237D02*
X-3436500Y+8866395D01*
D20*
X+3112840Y+8354840D02*
X+3387160Y+8354840D01*
X+3387160Y+9137160D01*
X+3112840Y+9137160D01*
X+3112840Y+8354840D01*
D73*
X+3282919Y+8713081D02*
X+3299378Y+8696622D01*
X+3299378Y+8647245D01*
X+3266460Y+8614327D01*
X+3233541Y+8614327D01*
X+3200623Y+8647245D01*
X+3200623Y+8696622D01*
X+3217082Y+8713081D01*
X+3233541Y+8778918D02*
X+3200623Y+8811836D01*
X+3299378Y+8811836D01*
D17*
X-16000000Y-2500000D02*
X+15500000Y-2500000D01*
X+15500000Y+12750000D01*
X-16000000Y+12750000D01*
X-16000000Y-2500000D01*
D20*
X+6411100Y+8879100D02*
X+6588900Y+8879100D01*
X+6588900Y+10072900D01*
X+6411100Y+10072900D01*
X+6411100Y+8879100D01*
D30*
X+6532004Y+9390656D02*
X+6467996Y+9390656D01*
X+6467996Y+9443996D01*
X+6478664Y+9454664D01*
X+6489332Y+9454664D01*
X+6500000Y+9443996D01*
X+6500000Y+9390656D01*
X+6500000Y+9443996D02*
X+6510668Y+9454664D01*
X+6532004Y+9454664D01*
X+6489332Y+9497336D02*
X+6467996Y+9518672D01*
X+6532004Y+9518672D01*
D20*
X+6419100Y+7153100D02*
X+6596900Y+7153100D01*
X+6596900Y+8346900D01*
X+6419100Y+8346900D01*
X+6419100Y+7153100D01*
D30*
X+6540004Y+7664656D02*
X+6475996Y+7664656D01*
X+6475996Y+7717996D01*
X+6486664Y+7728664D01*
X+6497332Y+7728664D01*
X+6508000Y+7717996D01*
X+6508000Y+7664656D01*
X+6508000Y+7717996D02*
X+6518668Y+7728664D01*
X+6540004Y+7728664D01*
X+6486664Y+7760668D02*
X+6475996Y+7771336D01*
X+6475996Y+7803340D01*
X+6486664Y+7814008D01*
X+6497332Y+7814008D01*
X+6508000Y+7803340D01*
X+6508000Y+7771336D01*
X+6518668Y+7760668D01*
X+6540004Y+7760668D01*
X+6540004Y+7814008D01*
D20*
X+7564840Y+5516880D02*
X+8185160Y+5516880D01*
X+8185160Y+6821120D01*
X+7564840Y+6821120D01*
X+7564840Y+5516880D01*
D31*
X+7763343Y+5871247D02*
X+7949439Y+5871247D01*
X+7986658Y+5908466D01*
X+7986658Y+6057342D01*
X+7949439Y+6094561D01*
X+7763343Y+6094561D01*
X+7800562Y+6206219D02*
X+7763343Y+6243438D01*
X+7763343Y+6355095D01*
X+7800562Y+6392314D01*
X+7837781Y+6392314D01*
X+7875000Y+6355095D01*
X+7875000Y+6243438D01*
X+7912220Y+6206219D01*
X+7986658Y+6206219D01*
X+7986658Y+6392314D01*
D20*
X+6612840Y+3686500D02*
X+8665160Y+3686500D01*
X+8665160Y+4575500D01*
X+6612840Y+4575500D01*
X+6612840Y+3686500D01*
D32*
X+7212280Y+4291020D02*
X+7212280Y+4024320D01*
X+7265620Y+3970980D01*
X+7478980Y+3970980D01*
X+7532320Y+4024320D01*
X+7532320Y+4291020D01*
X+7692340Y+4237680D02*
X+7745680Y+4291020D01*
X+7905700Y+4291020D01*
X+7959040Y+4237680D01*
X+7959040Y+4184340D01*
X+7905700Y+4131000D01*
X+7959040Y+4077660D01*
X+7959040Y+4024320D01*
X+7905700Y+3970980D01*
X+7745680Y+3970980D01*
X+7692340Y+4024320D01*
X+7799020Y+4131000D02*
X+7905700Y+4131000D01*
D20*
X+7628840Y+2362840D02*
X+8411160Y+2362840D01*
X+8411160Y+2637160D01*
X+7628840Y+2637160D01*
X+7628840Y+2362840D01*
D73*
X+7987081Y+2467081D02*
X+7970622Y+2450622D01*
X+7921245Y+2450622D01*
X+7888327Y+2483540D01*
X+7888327Y+2516459D01*
X+7921245Y+2549377D01*
X+7970622Y+2549377D01*
X+7987081Y+2532918D01*
X+8036459Y+2532918D02*
X+8052918Y+2549377D01*
X+8102295Y+2549377D01*
X+8118754Y+2532918D01*
X+8118754Y+2516459D01*
X+8102295Y+2500000D01*
X+8052918Y+2500000D01*
X+8036459Y+2483540D01*
X+8036459Y+2450622D01*
X+8118754Y+2450622D01*
D20*
X+7161100Y+2911100D02*
X+8354900Y+2911100D01*
X+8354900Y+3088900D01*
X+7161100Y+3088900D01*
X+7161100Y+2911100D01*
D30*
X+7672656Y+2967996D02*
X+7672656Y+3032004D01*
X+7725996Y+3032004D01*
X+7736664Y+3021336D01*
X+7736664Y+3010668D01*
X+7725996Y+3000000D01*
X+7672656Y+3000000D01*
X+7725996Y+3000000D02*
X+7736664Y+2989332D01*
X+7736664Y+2967996D01*
X+7768668Y+3021336D02*
X+7779336Y+3032004D01*
X+7811340Y+3032004D01*
X+7822008Y+3021336D01*
X+7822008Y+3010668D01*
X+7811340Y+3000000D01*
X+7822008Y+2989332D01*
X+7822008Y+2978664D01*
X+7811340Y+2967996D01*
X+7779336Y+2967996D01*
X+7768668Y+2978664D01*
X+7790004Y+3000000D02*
X+7811340Y+3000000D01*
D20*
X+5411100Y+3161100D02*
X+6604900Y+3161100D01*
X+6604900Y+3338900D01*
X+5411100Y+3338900D01*
X+5411100Y+3161100D01*
D30*
X+5922656Y+3217996D02*
X+5922656Y+3282004D01*
X+5975996Y+3282004D01*
X+5986664Y+3271336D01*
X+5986664Y+3260668D01*
X+5975996Y+3250000D01*
X+5922656Y+3250000D01*
X+5975996Y+3250000D02*
X+5986664Y+3239332D01*
X+5986664Y+3217996D01*
X+6072008Y+3282004D02*
X+6018668Y+3282004D01*
X+6018668Y+3260668D01*
X+6061340Y+3260668D01*
X+6072008Y+3250000D01*
X+6072008Y+3228664D01*
X+6061340Y+3217996D01*
X+6029336Y+3217996D01*
X+6018668Y+3228664D01*
D20*
X+6411100Y+2661100D02*
X+7604900Y+2661100D01*
X+7604900Y+2838900D01*
X+6411100Y+2838900D01*
X+6411100Y+2661100D01*
D30*
X+6922656Y+2717996D02*
X+6922656Y+2782004D01*
X+6975996Y+2782004D01*
X+6986664Y+2771336D01*
X+6986664Y+2760668D01*
X+6975996Y+2750000D01*
X+6922656Y+2750000D01*
X+6975996Y+2750000D02*
X+6986664Y+2739332D01*
X+6986664Y+2717996D01*
X+7072008Y+2739332D02*
X+7008000Y+2739332D01*
X+7050672Y+2782004D01*
X+7050672Y+2717996D01*
D20*
X+5362840Y+2362840D02*
X+6145160Y+2362840D01*
X+6145160Y+2637160D01*
X+5362840Y+2637160D01*
X+5362840Y+2362840D01*
D73*
X+5721081Y+2467081D02*
X+5704622Y+2450622D01*
X+5655245Y+2450622D01*
X+5622327Y+2483540D01*
X+5622327Y+2516459D01*
X+5655245Y+2549377D01*
X+5704622Y+2549377D01*
X+5721081Y+2532918D01*
X+5770459Y+2532918D02*
X+5786918Y+2549377D01*
X+5836295Y+2549377D01*
X+5852754Y+2532918D01*
X+5852754Y+2516459D01*
X+5836295Y+2500000D01*
X+5852754Y+2483540D01*
X+5852754Y+2467081D01*
X+5836295Y+2450622D01*
X+5786918Y+2450622D01*
X+5770459Y+2467081D01*
X+5803377Y+2500000D02*
X+5836295Y+2500000D01*
D20*
X+3661100Y+3161100D02*
X+4854900Y+3161100D01*
X+4854900Y+3338900D01*
X+3661100Y+3338900D01*
X+3661100Y+3161100D01*
D30*
X+4172656Y+3217996D02*
X+4172656Y+3282004D01*
X+4225996Y+3282004D01*
X+4236664Y+3271336D01*
X+4236664Y+3260668D01*
X+4225996Y+3250000D01*
X+4172656Y+3250000D01*
X+4225996Y+3250000D02*
X+4236664Y+3239332D01*
X+4236664Y+3217996D01*
X+4322008Y+3271336D02*
X+4311340Y+3282004D01*
X+4279336Y+3282004D01*
X+4268668Y+3271336D01*
X+4268668Y+3228664D01*
X+4279336Y+3217996D01*
X+4311340Y+3217996D01*
X+4322008Y+3228664D01*
X+4322008Y+3239332D01*
X+4311340Y+3250000D01*
X+4268668Y+3250000D01*
D20*
X+5161100Y+1411100D02*
X+6354900Y+1411100D01*
X+6354900Y+1588900D01*
X+5161100Y+1588900D01*
X+5161100Y+1411100D01*
D30*
X+5672656Y+1467996D02*
X+5672656Y+1532004D01*
X+5725996Y+1532004D01*
X+5736664Y+1521336D01*
X+5736664Y+1510668D01*
X+5725996Y+1500000D01*
X+5672656Y+1500000D01*
X+5725996Y+1500000D02*
X+5736664Y+1489332D01*
X+5736664Y+1467996D01*
X+5779336Y+1500000D02*
X+5768668Y+1510668D01*
X+5768668Y+1521336D01*
X+5779336Y+1532004D01*
X+5811340Y+1532004D01*
X+5822008Y+1521336D01*
X+5822008Y+1510668D01*
X+5811340Y+1500000D01*
X+5779336Y+1500000D01*
X+5768668Y+1489332D01*
X+5768668Y+1478664D01*
X+5779336Y+1467996D01*
X+5811340Y+1467996D01*
X+5822008Y+1478664D01*
X+5822008Y+1489332D01*
X+5811340Y+1500000D01*
D20*
X+4161100Y+1395100D02*
X+4338900Y+1395100D01*
X+4338900Y+2588900D01*
X+4161100Y+2588900D01*
X+4161100Y+1395100D01*
D30*
X+4282004Y+1906656D02*
X+4217996Y+1906656D01*
X+4217996Y+1959996D01*
X+4228664Y+1970664D01*
X+4239332Y+1970664D01*
X+4250000Y+1959996D01*
X+4250000Y+1906656D01*
X+4250000Y+1959996D02*
X+4260668Y+1970664D01*
X+4282004Y+1970664D01*
X+4217996Y+2002668D02*
X+4217996Y+2056008D01*
X+4228664Y+2056008D01*
X+4282004Y+2002668D01*
D20*
X+5411100Y+1911100D02*
X+6604900Y+1911100D01*
X+6604900Y+2088900D01*
X+5411100Y+2088900D01*
X+5411100Y+1911100D01*
D30*
X+5922656Y+1967996D02*
X+5922656Y+2032004D01*
X+5975996Y+2032004D01*
X+5986664Y+2021336D01*
X+5986664Y+2010668D01*
X+5975996Y+2000000D01*
X+5922656Y+2000000D01*
X+5975996Y+2000000D02*
X+5986664Y+1989332D01*
X+5986664Y+1967996D01*
X+6072008Y+2010668D02*
X+6061340Y+2000000D01*
X+6029336Y+2000000D01*
X+6018668Y+2010668D01*
X+6018668Y+2021336D01*
X+6029336Y+2032004D01*
X+6061340Y+2032004D01*
X+6072008Y+2021336D01*
X+6072008Y+1978664D01*
X+6061340Y+1967996D01*
X+6029336Y+1967996D01*
D20*
X-1637160Y+2436500D02*
X-600840Y+2436500D01*
X-600840Y+3325500D01*
X-1637160Y+3325500D01*
X-1637160Y+2436500D01*
D33*
X-1395352Y+2984632D02*
X-1395352Y+2811912D01*
X-1360808Y+2777368D01*
X-1222632Y+2777368D01*
X-1188088Y+2811912D01*
X-1188088Y+2984632D01*
X-911736Y+2846456D02*
X-1119000Y+2846456D01*
X-980824Y+2984632D01*
X-980824Y+2777368D01*
D20*
X-10830900Y+5153100D02*
X-10653100Y+5153100D01*
X-10653100Y+6346900D01*
X-10830900Y+6346900D01*
X-10830900Y+5153100D01*
D30*
X-10709996Y+5621984D02*
X-10774004Y+5621984D01*
X-10774004Y+5675324D01*
X-10763336Y+5685992D01*
X-10752668Y+5685992D01*
X-10742000Y+5675324D01*
X-10742000Y+5621984D01*
X-10742000Y+5675324D02*
X-10731332Y+5685992D01*
X-10709996Y+5685992D01*
X-10752668Y+5728664D02*
X-10774004Y+5750000D01*
X-10709996Y+5750000D01*
X-10720664Y+5792672D02*
X-10763336Y+5792672D01*
X-10774004Y+5803340D01*
X-10774004Y+5846012D01*
X-10763336Y+5856680D01*
X-10720664Y+5856680D01*
X-10709996Y+5846012D01*
X-10709996Y+5803340D01*
X-10720664Y+5792672D01*
X-10709996Y+5792672D02*
X-10774004Y+5856680D01*
M02*
